<?xml version="1.0" encoding="UTF-8" standalone="no"?>
<!DOCTYPE svg PUBLIC "-//W3C//DTD SVG 1.1//EN"
 "http://www.w3.org/Graphics/SVG/1.1/DTD/svg11.dtd">
<!-- Generated by graphviz version 2.40.1 (20161225.0304)
 -->
<!-- Title: dependencies Pages: 1 -->
<svg width="1728pt" height="284pt"
 viewBox="0.00 0.00 1728.00 284.00" xmlns="http://www.w3.org/2000/svg" xmlns:xlink="http://www.w3.org/1999/xlink">
<g id="graph0" class="graph" transform="scale(1 1) rotate(0) translate(4 280)">
<title>dependencies</title>
<polygon fill="#ffffff" stroke="transparent" points="-4,4 -4,-280 1724,-280 1724,4 -4,4"/>
<text text-anchor="start" x="839.0091" y="-42.4" font-family="sans-serif" font-weight="bold" font-size="14.00" fill="#000000">Legend</text>
<polygon fill="#ffffb3" stroke="transparent" points="626,-10 626,-30 646,-30 646,-10 626,-10"/>
<text text-anchor="start" x="649.629" y="-15.4" font-family="sans-serif" font-size="14.00" fill="#000000"> &#160;Declarations</text>
<polygon fill="#8dd3c7" stroke="transparent" points="739,-10 739,-30 759,-30 759,-10 739,-10"/>
<text text-anchor="start" x="762.7251" y="-15.4" font-family="sans-serif" font-size="14.00" fill="#000000"> &#160;Module</text>
<polygon fill="#80b1d3" stroke="transparent" points="825,-10 825,-30 845,-30 845,-10 825,-10"/>
<text text-anchor="start" x="848.7812" y="-15.4" font-family="sans-serif" font-size="14.00" fill="#000000"> &#160;Bootstrap</text>
<polygon fill="#fdb462" stroke="transparent" points="922,-10 922,-30 942,-30 942,-10 922,-10"/>
<text text-anchor="start" x="945.6732" y="-15.4" font-family="sans-serif" font-size="14.00" fill="#000000"> &#160;Providers</text>
<polygon fill="#fb8072" stroke="transparent" points="1018,-10 1018,-30 1038,-30 1038,-10 1018,-10"/>
<text text-anchor="start" x="1041.7258" y="-15.4" font-family="sans-serif" font-size="14.00" fill="#000000"> &#160;Exports</text>
<g id="clust1" class="cluster">
<title>cluster_AppModule</title>
<polygon fill="none" stroke="#000000" stroke-dasharray="1,5" points="8,-70 8,-268 1560,-268 1560,-70 8,-70"/>
</g>
<g id="clust2" class="cluster">
<title>cluster_AppModule_declarations</title>
<polygon fill="none" stroke="#000000" points="16,-78 16,-130 937,-130 937,-78 16,-78"/>
</g>
<g id="clust12" class="cluster">
<title>cluster_AppModule_bootstrap</title>
<polygon fill="none" stroke="#000000" points="687,-208 687,-260 811,-260 811,-208 687,-208"/>
</g>
<g id="clust13" class="cluster">
<title>cluster_AppModule_providers</title>
<polygon fill="none" stroke="#000000" points="945,-78 945,-130 1552,-130 1552,-78 945,-78"/>
</g>
<g id="clust14" class="cluster">
<title>cluster_AuthModule</title>
<polygon fill="none" stroke="#000000" stroke-dasharray="1,5" points="1568,-143 1568,-268 1712,-268 1712,-143 1568,-143"/>
</g>
<g id="clust18" class="cluster">
<title>cluster_AuthModule_exports</title>
<polygon fill="none" stroke="#000000" points="1576,-208 1576,-260 1704,-260 1704,-208 1576,-208"/>
</g>
<!-- AppComponent -->
<g id="node1" class="node">
<title>AppComponent</title>
<polygon fill="#ffffb3" stroke="#000000" points="801.9399,-122 696.0601,-122 696.0601,-86 801.9399,-86 801.9399,-122"/>
<text text-anchor="middle" x="749" y="-99.8" font-family="Times,serif" font-size="14.00" fill="#000000">AppComponent</text>
</g>
<!-- AppModule -->
<g id="node8" class="node">
<title>AppModule</title>
<polygon fill="#8dd3c7" stroke="#000000" points="790.6571,-187 787.6571,-191 766.6571,-191 763.6571,-187 707.3429,-187 707.3429,-151 790.6571,-151 790.6571,-187"/>
<text text-anchor="middle" x="749" y="-164.8" font-family="Times,serif" font-size="14.00" fill="#000000">AppModule</text>
</g>
<!-- AppComponent&#45;&gt;AppModule -->
<g id="edge1" class="edge">
<title>AppComponent&#45;&gt;AppModule</title>
<path fill="none" stroke="#000000" d="M749,-122.1061C749,-122.1061 749,-140.991 749,-140.991"/>
<polygon fill="#000000" stroke="#000000" points="745.5001,-140.9909 749,-150.991 752.5001,-140.991 745.5001,-140.9909"/>
</g>
<!-- AuthComponent -->
<g id="node2" class="node">
<title>AuthComponent</title>
<polygon fill="#ffffb3" stroke="#000000" points="928.8301,-122 819.1699,-122 819.1699,-86 928.8301,-86 928.8301,-122"/>
<text text-anchor="middle" x="874" y="-99.8" font-family="Times,serif" font-size="14.00" fill="#000000">AuthComponent</text>
</g>
<!-- AuthComponent&#45;&gt;AppModule -->
<g id="edge2" class="edge">
<title>AuthComponent&#45;&gt;AppModule</title>
<path fill="none" stroke="#000000" d="M855.7784,-122.0336C855.7784,-139.0597 855.7784,-162 855.7784,-162 855.7784,-162 800.8952,-162 800.8952,-162"/>
<polygon fill="#000000" stroke="#000000" points="800.8952,-158.5001 790.8952,-162 800.8951,-165.5001 800.8952,-158.5001"/>
</g>
<!-- AuthModule -->
<g id="node14" class="node">
<title>AuthModule</title>
<polygon fill="#8dd3c7" stroke="#000000" points="1663.5482,-187 1660.5482,-191 1639.5482,-191 1636.5482,-187 1576.4518,-187 1576.4518,-151 1663.5482,-151 1663.5482,-187"/>
<text text-anchor="middle" x="1620" y="-164.8" font-family="Times,serif" font-size="14.00" fill="#000000">AuthModule</text>
</g>
<!-- AuthComponent&#45;&gt;AuthModule -->
<g id="edge13" class="edge">
<title>AuthComponent&#45;&gt;AuthModule</title>
<path fill="none" stroke="#000000" d="M892.2216,-122.2396C892.2216,-137.5706 892.2216,-157 892.2216,-157 892.2216,-157 1566.3838,-157 1566.3838,-157"/>
<polygon fill="#000000" stroke="#000000" points="1566.3838,-160.5001 1576.3838,-157 1566.3837,-153.5001 1566.3838,-160.5001"/>
</g>
<!-- AppOwnerDetails -->
<g id="node3" class="node">
<title>AppOwnerDetails</title>
<polygon fill="#ffffb3" stroke="#000000" points="537.8473,-122 420.1527,-122 420.1527,-86 537.8473,-86 537.8473,-122"/>
<text text-anchor="middle" x="479" y="-99.8" font-family="Times,serif" font-size="14.00" fill="#000000">AppOwnerDetails</text>
</g>
<!-- AppOwnerDetails&#45;&gt;AppModule -->
<g id="edge3" class="edge">
<title>AppOwnerDetails&#45;&gt;AppModule</title>
<path fill="none" stroke="#000000" d="M479,-122.0225C479,-139.3734 479,-163 479,-163 479,-163 697.1087,-163 697.1087,-163"/>
<polygon fill="#000000" stroke="#000000" points="697.1088,-166.5001 707.1087,-163 697.1087,-159.5001 697.1088,-166.5001"/>
</g>
<!-- UserDetails -->
<g id="node4" class="node">
<title>UserDetails</title>
<polygon fill="#ffffb3" stroke="#000000" points="402.0786,-122 319.9214,-122 319.9214,-86 402.0786,-86 402.0786,-122"/>
<text text-anchor="middle" x="361" y="-99.8" font-family="Times,serif" font-size="14.00" fill="#000000">UserDetails</text>
</g>
<!-- UserDetails&#45;&gt;AppModule -->
<g id="edge4" class="edge">
<title>UserDetails&#45;&gt;AppModule</title>
<path fill="none" stroke="#000000" d="M361,-122.1061C361,-141.3391 361,-169 361,-169 361,-169 697.1086,-169 697.1086,-169"/>
<polygon fill="#000000" stroke="#000000" points="697.1086,-172.5001 707.1086,-169 697.1085,-165.5001 697.1086,-172.5001"/>
</g>
<!-- ShowAuthedDirective -->
<g id="node5" class="node">
<title>ShowAuthedDirective</title>
<polygon fill="#ffffb3" stroke="#000000" points="301.6839,-122 160.3161,-122 160.3161,-86 301.6839,-86 301.6839,-122"/>
<text text-anchor="middle" x="231" y="-99.8" font-family="Times,serif" font-size="14.00" fill="#000000">ShowAuthedDirective</text>
</g>
<!-- ShowAuthedDirective&#45;&gt;AppModule -->
<g id="edge5" class="edge">
<title>ShowAuthedDirective&#45;&gt;AppModule</title>
<path fill="none" stroke="#000000" d="M231,-122.2843C231,-143.3211 231,-175 231,-175 231,-175 697.0487,-175 697.0487,-175"/>
<polygon fill="#000000" stroke="#000000" points="697.0487,-178.5001 707.0487,-175 697.0486,-171.5001 697.0487,-178.5001"/>
</g>
<!-- FooterComponent -->
<g id="node6" class="node">
<title>FooterComponent</title>
<polygon fill="#ffffb3" stroke="#000000" points="141.8809,-122 24.1191,-122 24.1191,-86 141.8809,-86 141.8809,-122"/>
<text text-anchor="middle" x="83" y="-99.8" font-family="Times,serif" font-size="14.00" fill="#000000">FooterComponent</text>
</g>
<!-- FooterComponent&#45;&gt;AppModule -->
<g id="edge6" class="edge">
<title>FooterComponent&#45;&gt;AppModule</title>
<path fill="none" stroke="#000000" d="M83,-122.2479C83,-145.0179 83,-181 83,-181 83,-181 697.3387,-181 697.3387,-181"/>
<polygon fill="#000000" stroke="#000000" points="697.3388,-184.5001 707.3387,-181 697.3387,-177.5001 697.3388,-184.5001"/>
</g>
<!-- HeaderComponent -->
<g id="node7" class="node">
<title>HeaderComponent</title>
<polygon fill="#ffffb3" stroke="#000000" points="677.7437,-122 556.2563,-122 556.2563,-86 677.7437,-86 677.7437,-122"/>
<text text-anchor="middle" x="617" y="-99.8" font-family="Times,serif" font-size="14.00" fill="#000000">HeaderComponent</text>
</g>
<!-- HeaderComponent&#45;&gt;AppModule -->
<g id="edge7" class="edge">
<title>HeaderComponent&#45;&gt;AppModule</title>
<path fill="none" stroke="#000000" d="M617,-122.2396C617,-137.5706 617,-157 617,-157 617,-157 697.2344,-157 697.2344,-157"/>
<polygon fill="#000000" stroke="#000000" points="697.2344,-160.5001 707.2344,-157 697.2343,-153.5001 697.2344,-160.5001"/>
</g>
<!-- AppComponent  -->
<g id="node9" class="node">
<title>AppComponent </title>
<polygon fill="#80b1d3" stroke="#000000" points="803.439,-252 694.561,-252 694.561,-216 803.439,-216 803.439,-252"/>
<text text-anchor="middle" x="749" y="-229.8" font-family="Times,serif" font-size="14.00" fill="#000000">AppComponent </text>
</g>
<!-- AppModule&#45;&gt;AppComponent  -->
<g id="edge8" class="edge">
<title>AppModule&#45;&gt;AppComponent </title>
<path fill="none" stroke="#000000" stroke-dasharray="1,5" d="M749,-187.1061C749,-187.1061 749,-205.991 749,-205.991"/>
<polygon fill="#000000" stroke="#000000" points="745.5001,-205.9909 749,-215.991 752.5001,-205.991 745.5001,-205.9909"/>
</g>
<!-- AppDataService -->
<g id="node10" class="node">
<title>AppDataService</title>
<ellipse fill="#fdb462" stroke="#000000" cx="1319" cy="-104" rx="74.6976" ry="18"/>
<text text-anchor="middle" x="1319" y="-99.8" font-family="Times,serif" font-size="14.00" fill="#000000">AppDataService</text>
</g>
<!-- AppDataService&#45;&gt;AppModule -->
<g id="edge9" class="edge">
<title>AppDataService&#45;&gt;AppModule</title>
<path fill="none" stroke="#000000" d="M1319,-122.0449C1319,-143.6623 1319,-177 1319,-177 1319,-177 800.9135,-177 800.9135,-177"/>
<polygon fill="#000000" stroke="#000000" points="800.9135,-173.5001 790.9135,-177 800.9134,-180.5001 800.9135,-173.5001"/>
</g>
<!-- UserdataService -->
<g id="node11" class="node">
<title>UserdataService</title>
<ellipse fill="#fdb462" stroke="#000000" cx="1152" cy="-104" rx="74.1123" ry="18"/>
<text text-anchor="middle" x="1152" y="-99.8" font-family="Times,serif" font-size="14.00" fill="#000000">UserdataService</text>
</g>
<!-- UserdataService&#45;&gt;AppModule -->
<g id="edge10" class="edge">
<title>UserdataService&#45;&gt;AppModule</title>
<path fill="none" stroke="#000000" d="M1152,-122.2228C1152,-142.3652 1152,-172 1152,-172 1152,-172 800.9876,-172 800.9876,-172"/>
<polygon fill="#000000" stroke="#000000" points="800.9876,-168.5001 790.9876,-172 800.9876,-175.5001 800.9876,-168.5001"/>
</g>
<!-- JwtService -->
<g id="node12" class="node">
<title>JwtService</title>
<ellipse fill="#fdb462" stroke="#000000" cx="1006" cy="-104" rx="53.3052" ry="18"/>
<text text-anchor="middle" x="1006" y="-99.8" font-family="Times,serif" font-size="14.00" fill="#000000">JwtService</text>
</g>
<!-- JwtService&#45;&gt;AppModule -->
<g id="edge11" class="edge">
<title>JwtService&#45;&gt;AppModule</title>
<path fill="none" stroke="#000000" d="M1006,-122.2222C1006,-140.8285 1006,-167 1006,-167 1006,-167 800.8635,-167 800.8635,-167"/>
<polygon fill="#000000" stroke="#000000" points="800.8635,-163.5001 790.8635,-167 800.8634,-170.5001 800.8635,-163.5001"/>
</g>
<!-- NoAuthGuard -->
<g id="node13" class="node">
<title>NoAuthGuard</title>
<ellipse fill="#fdb462" stroke="#000000" cx="1478" cy="-104" rx="66.0569" ry="18"/>
<text text-anchor="middle" x="1478" y="-99.8" font-family="Times,serif" font-size="14.00" fill="#000000">NoAuthGuard</text>
</g>
<!-- NoAuthGuard&#45;&gt;AppModule -->
<g id="edge12" class="edge">
<title>NoAuthGuard&#45;&gt;AppModule</title>
<path fill="none" stroke="#000000" d="M1478,-122.0908C1478,-145.1328 1478,-182 1478,-182 1478,-182 800.8125,-182 800.8125,-182"/>
<polygon fill="#000000" stroke="#000000" points="800.8126,-178.5001 790.8125,-182 800.8125,-185.5001 800.8126,-178.5001"/>
</g>
<!-- NoAuthGuard&#45;&gt;AuthModule -->
<g id="edge15" class="edge">
<title>NoAuthGuard&#45;&gt;AuthModule</title>
<path fill="none" stroke="#000000" d="M1544.4266,-104C1581.3837,-104 1620,-104 1620,-104 1620,-104 1620,-140.8939 1620,-140.8939"/>
<polygon fill="#000000" stroke="#000000" points="1616.5001,-140.8938 1620,-150.8939 1623.5001,-140.8939 1616.5001,-140.8938"/>
</g>
<!-- AuthComponent  -->
<g id="node15" class="node">
<title>AuthComponent </title>
<polygon fill="#fb8072" stroke="#000000" points="1696.3297,-252 1583.6703,-252 1583.6703,-216 1696.3297,-216 1696.3297,-252"/>
<text text-anchor="middle" x="1640" y="-229.8" font-family="Times,serif" font-size="14.00" fill="#000000">AuthComponent </text>
</g>
<!-- AuthModule&#45;&gt;AuthComponent  -->
<g id="edge14" class="edge">
<title>AuthModule&#45;&gt;AuthComponent </title>
<path fill="none" stroke="#000000" stroke-dasharray="5,2" d="M1623.6793,-187.1061C1623.6793,-187.1061 1623.6793,-205.991 1623.6793,-205.991"/>
<polygon fill="#000000" stroke="#000000" points="1620.1794,-205.9909 1623.6793,-215.991 1627.1794,-205.991 1620.1794,-205.9909"/>
</g>
</g>
</svg>
