<?xml version="1.0" encoding="UTF-8" standalone="no"?>
<!DOCTYPE svg PUBLIC "-//W3C//DTD SVG 1.1//EN"
 "http://www.w3.org/Graphics/SVG/1.1/DTD/svg11.dtd">
<!-- Generated by graphviz version 2.40.1 (20161225.0304)
 -->
<!-- Title: dependencies Pages: 1 -->
<svg width="1577pt" height="284pt"
 viewBox="0.00 0.00 1577.00 284.00" xmlns="http://www.w3.org/2000/svg" xmlns:xlink="http://www.w3.org/1999/xlink">
<g id="graph0" class="graph" transform="scale(1 1) rotate(0) translate(4 280)">
<title>dependencies</title>
<polygon fill="#ffffff" stroke="transparent" points="-4,4 -4,-280 1573,-280 1573,4 -4,4"/>
<text text-anchor="start" x="763.5091" y="-42.4" font-family="sans-serif" font-weight="bold" font-size="14.00" fill="#000000">Legend</text>
<polygon fill="#ffffb3" stroke="transparent" points="550.5,-10 550.5,-30 570.5,-30 570.5,-10 550.5,-10"/>
<text text-anchor="start" x="574.129" y="-15.4" font-family="sans-serif" font-size="14.00" fill="#000000"> &#160;Declarations</text>
<polygon fill="#8dd3c7" stroke="transparent" points="663.5,-10 663.5,-30 683.5,-30 683.5,-10 663.5,-10"/>
<text text-anchor="start" x="687.2251" y="-15.4" font-family="sans-serif" font-size="14.00" fill="#000000"> &#160;Module</text>
<polygon fill="#80b1d3" stroke="transparent" points="749.5,-10 749.5,-30 769.5,-30 769.5,-10 749.5,-10"/>
<text text-anchor="start" x="773.2812" y="-15.4" font-family="sans-serif" font-size="14.00" fill="#000000"> &#160;Bootstrap</text>
<polygon fill="#fdb462" stroke="transparent" points="846.5,-10 846.5,-30 866.5,-30 866.5,-10 846.5,-10"/>
<text text-anchor="start" x="870.1732" y="-15.4" font-family="sans-serif" font-size="14.00" fill="#000000"> &#160;Providers</text>
<polygon fill="#fb8072" stroke="transparent" points="942.5,-10 942.5,-30 962.5,-30 962.5,-10 942.5,-10"/>
<text text-anchor="start" x="966.2258" y="-15.4" font-family="sans-serif" font-size="14.00" fill="#000000"> &#160;Exports</text>
<g id="clust1" class="cluster">
<title>cluster_AppModule</title>
<polygon fill="none" stroke="#000000" stroke-dasharray="1,5" points="8,-70 8,-268 1561,-268 1561,-70 8,-70"/>
</g>
<g id="clust2" class="cluster">
<title>cluster_AppModule_declarations</title>
<polygon fill="none" stroke="#000000" points="632,-78 632,-130 1553,-130 1553,-78 632,-78"/>
</g>
<g id="clust12" class="cluster">
<title>cluster_AppModule_bootstrap</title>
<polygon fill="none" stroke="#000000" points="777,-208 777,-260 901,-260 901,-208 777,-208"/>
</g>
<g id="clust13" class="cluster">
<title>cluster_AppModule_providers</title>
<polygon fill="none" stroke="#000000" points="16,-78 16,-130 624,-130 624,-78 16,-78"/>
</g>
<!-- AppComponent -->
<g id="node1" class="node">
<title>AppComponent</title>
<polygon fill="#ffffb3" stroke="#000000" points="1544.9399,-122 1439.0601,-122 1439.0601,-86 1544.9399,-86 1544.9399,-122"/>
<text text-anchor="middle" x="1492" y="-99.8" font-family="Times,serif" font-size="14.00" fill="#000000">AppComponent</text>
</g>
<!-- AppModule -->
<g id="node8" class="node">
<title>AppModule</title>
<polygon fill="#8dd3c7" stroke="#000000" points="880.6571,-187 877.6571,-191 856.6571,-191 853.6571,-187 797.3429,-187 797.3429,-151 880.6571,-151 880.6571,-187"/>
<text text-anchor="middle" x="839" y="-164.8" font-family="Times,serif" font-size="14.00" fill="#000000">AppModule</text>
</g>
<!-- AppComponent&#45;&gt;AppModule -->
<g id="edge1" class="edge">
<title>AppComponent&#45;&gt;AppModule</title>
<path fill="none" stroke="#000000" d="M1492,-122.2479C1492,-145.0179 1492,-181 1492,-181 1492,-181 890.8414,-181 890.8414,-181"/>
<polygon fill="#000000" stroke="#000000" points="890.8415,-177.5001 880.8414,-181 890.8414,-184.5001 890.8415,-177.5001"/>
</g>
<!-- AuthComponent -->
<g id="node2" class="node">
<title>AuthComponent</title>
<polygon fill="#ffffb3" stroke="#000000" points="1421.8301,-122 1312.1699,-122 1312.1699,-86 1421.8301,-86 1421.8301,-122"/>
<text text-anchor="middle" x="1367" y="-99.8" font-family="Times,serif" font-size="14.00" fill="#000000">AuthComponent</text>
</g>
<!-- AuthComponent&#45;&gt;AppModule -->
<g id="edge2" class="edge">
<title>AuthComponent&#45;&gt;AppModule</title>
<path fill="none" stroke="#000000" d="M1367,-122.2843C1367,-143.3211 1367,-175 1367,-175 1367,-175 890.8726,-175 890.8726,-175"/>
<polygon fill="#000000" stroke="#000000" points="890.8726,-171.5001 880.8726,-175 890.8726,-178.5001 890.8726,-171.5001"/>
</g>
<!-- AppOwnerDetails -->
<g id="node3" class="node">
<title>AppOwnerDetails</title>
<polygon fill="#ffffb3" stroke="#000000" points="1293.8473,-122 1176.1527,-122 1176.1527,-86 1293.8473,-86 1293.8473,-122"/>
<text text-anchor="middle" x="1235" y="-99.8" font-family="Times,serif" font-size="14.00" fill="#000000">AppOwnerDetails</text>
</g>
<!-- AppOwnerDetails&#45;&gt;AppModule -->
<g id="edge3" class="edge">
<title>AppOwnerDetails&#45;&gt;AppModule</title>
<path fill="none" stroke="#000000" d="M1235,-122.1061C1235,-141.3391 1235,-169 1235,-169 1235,-169 891.004,-169 891.004,-169"/>
<polygon fill="#000000" stroke="#000000" points="891.0041,-165.5001 881.004,-169 891.004,-172.5001 891.0041,-165.5001"/>
</g>
<!-- UserDetails -->
<g id="node4" class="node">
<title>UserDetails</title>
<polygon fill="#ffffb3" stroke="#000000" points="1158.0786,-122 1075.9214,-122 1075.9214,-86 1158.0786,-86 1158.0786,-122"/>
<text text-anchor="middle" x="1117" y="-99.8" font-family="Times,serif" font-size="14.00" fill="#000000">UserDetails</text>
</g>
<!-- UserDetails&#45;&gt;AppModule -->
<g id="edge4" class="edge">
<title>UserDetails&#45;&gt;AppModule</title>
<path fill="none" stroke="#000000" d="M1117,-122.0225C1117,-139.3734 1117,-163 1117,-163 1117,-163 890.9204,-163 890.9204,-163"/>
<polygon fill="#000000" stroke="#000000" points="890.9204,-159.5001 880.9204,-163 890.9204,-166.5001 890.9204,-159.5001"/>
</g>
<!-- ShowAuthedDirective -->
<g id="node5" class="node">
<title>ShowAuthedDirective</title>
<polygon fill="#ffffb3" stroke="#000000" points="1057.6839,-122 916.3161,-122 916.3161,-86 1057.6839,-86 1057.6839,-122"/>
<text text-anchor="middle" x="987" y="-99.8" font-family="Times,serif" font-size="14.00" fill="#000000">ShowAuthedDirective</text>
</g>
<!-- ShowAuthedDirective&#45;&gt;AppModule -->
<g id="edge5" class="edge">
<title>ShowAuthedDirective&#45;&gt;AppModule</title>
<path fill="none" stroke="#000000" d="M987,-122.2396C987,-137.5706 987,-157 987,-157 987,-157 891.015,-157 891.015,-157"/>
<polygon fill="#000000" stroke="#000000" points="891.015,-153.5001 881.015,-157 891.0149,-160.5001 891.015,-153.5001"/>
</g>
<!-- FooterComponent -->
<g id="node6" class="node">
<title>FooterComponent</title>
<polygon fill="#ffffb3" stroke="#000000" points="897.8809,-122 780.1191,-122 780.1191,-86 897.8809,-86 897.8809,-122"/>
<text text-anchor="middle" x="839" y="-99.8" font-family="Times,serif" font-size="14.00" fill="#000000">FooterComponent</text>
</g>
<!-- FooterComponent&#45;&gt;AppModule -->
<g id="edge6" class="edge">
<title>FooterComponent&#45;&gt;AppModule</title>
<path fill="none" stroke="#000000" d="M839,-122.1061C839,-122.1061 839,-140.991 839,-140.991"/>
<polygon fill="#000000" stroke="#000000" points="835.5001,-140.9909 839,-150.991 842.5001,-140.991 835.5001,-140.9909"/>
</g>
<!-- HeaderComponent -->
<g id="node7" class="node">
<title>HeaderComponent</title>
<polygon fill="#ffffb3" stroke="#000000" points="761.7437,-122 640.2563,-122 640.2563,-86 761.7437,-86 761.7437,-122"/>
<text text-anchor="middle" x="701" y="-99.8" font-family="Times,serif" font-size="14.00" fill="#000000">HeaderComponent</text>
</g>
<!-- HeaderComponent&#45;&gt;AppModule -->
<g id="edge7" class="edge">
<title>HeaderComponent&#45;&gt;AppModule</title>
<path fill="none" stroke="#000000" d="M701,-122.2396C701,-137.5706 701,-157 701,-157 701,-157 787.221,-157 787.221,-157"/>
<polygon fill="#000000" stroke="#000000" points="787.221,-160.5001 797.221,-157 787.2209,-153.5001 787.221,-160.5001"/>
</g>
<!-- AppComponent  -->
<g id="node9" class="node">
<title>AppComponent </title>
<polygon fill="#80b1d3" stroke="#000000" points="893.439,-252 784.561,-252 784.561,-216 893.439,-216 893.439,-252"/>
<text text-anchor="middle" x="839" y="-229.8" font-family="Times,serif" font-size="14.00" fill="#000000">AppComponent </text>
</g>
<!-- AppModule&#45;&gt;AppComponent  -->
<g id="edge8" class="edge">
<title>AppModule&#45;&gt;AppComponent </title>
<path fill="none" stroke="#000000" stroke-dasharray="1,5" d="M839,-187.1061C839,-187.1061 839,-205.991 839,-205.991"/>
<polygon fill="#000000" stroke="#000000" points="835.5001,-205.9909 839,-215.991 842.5001,-205.991 835.5001,-205.9909"/>
</g>
<!-- AppDataService -->
<g id="node10" class="node">
<title>AppDataService</title>
<ellipse fill="#fdb462" stroke="#000000" cx="541" cy="-104" rx="74.6976" ry="18"/>
<text text-anchor="middle" x="541" y="-99.8" font-family="Times,serif" font-size="14.00" fill="#000000">AppDataService</text>
</g>
<!-- AppDataService&#45;&gt;AppModule -->
<g id="edge9" class="edge">
<title>AppDataService&#45;&gt;AppModule</title>
<path fill="none" stroke="#000000" d="M541,-122.0225C541,-139.3734 541,-163 541,-163 541,-163 787.2506,-163 787.2506,-163"/>
<polygon fill="#000000" stroke="#000000" points="787.2506,-166.5001 797.2506,-163 787.2506,-159.5001 787.2506,-166.5001"/>
</g>
<!-- UserdataService -->
<g id="node11" class="node">
<title>UserdataService</title>
<ellipse fill="#fdb462" stroke="#000000" cx="374" cy="-104" rx="74.1123" ry="18"/>
<text text-anchor="middle" x="374" y="-99.8" font-family="Times,serif" font-size="14.00" fill="#000000">UserdataService</text>
</g>
<!-- UserdataService&#45;&gt;AppModule -->
<g id="edge10" class="edge">
<title>UserdataService&#45;&gt;AppModule</title>
<path fill="none" stroke="#000000" d="M374,-122.1061C374,-141.3391 374,-169 374,-169 374,-169 787.3251,-169 787.3251,-169"/>
<polygon fill="#000000" stroke="#000000" points="787.3252,-172.5001 797.3251,-169 787.3251,-165.5001 787.3252,-172.5001"/>
</g>
<!-- JwtService -->
<g id="node12" class="node">
<title>JwtService</title>
<ellipse fill="#fdb462" stroke="#000000" cx="228" cy="-104" rx="53.3052" ry="18"/>
<text text-anchor="middle" x="228" y="-99.8" font-family="Times,serif" font-size="14.00" fill="#000000">JwtService</text>
</g>
<!-- JwtService&#45;&gt;AppModule -->
<g id="edge11" class="edge">
<title>JwtService&#45;&gt;AppModule</title>
<path fill="none" stroke="#000000" d="M228,-122.2843C228,-143.3211 228,-175 228,-175 228,-175 787.0035,-175 787.0035,-175"/>
<polygon fill="#000000" stroke="#000000" points="787.0035,-178.5001 797.0035,-175 787.0035,-171.5001 787.0035,-178.5001"/>
</g>
<!-- NoAuthGuard -->
<g id="node13" class="node">
<title>NoAuthGuard</title>
<ellipse fill="#fdb462" stroke="#000000" cx="90" cy="-104" rx="66.0569" ry="18"/>
<text text-anchor="middle" x="90" y="-99.8" font-family="Times,serif" font-size="14.00" fill="#000000">NoAuthGuard</text>
</g>
<!-- NoAuthGuard&#45;&gt;AppModule -->
<g id="edge12" class="edge">
<title>NoAuthGuard&#45;&gt;AppModule</title>
<path fill="none" stroke="#000000" d="M90,-122.2479C90,-145.0179 90,-181 90,-181 90,-181 787.1256,-181 787.1256,-181"/>
<polygon fill="#000000" stroke="#000000" points="787.1256,-184.5001 797.1256,-181 787.1255,-177.5001 787.1256,-184.5001"/>
</g>
</g>
</svg>
